<?xml version="1.0" encoding="utf-8"?>
<!-- Generator: Adobe Illustrator 25.2.3, SVG Export Plug-In . SVG Version: 6.00 Build 0)  -->
<svg version="1.1" id="Layer_1" xmlns="http://www.w3.org/2000/svg" xmlns:xlink="http://www.w3.org/1999/xlink" x="0px" y="0px"
	 width="510.9px" height="244.6px" viewBox="0 0 510.9 244.6" style="enable-background:new 0 0 510.9 244.6;" xml:space="preserve"
	>
<style type="text/css">
	.st0{fill:url(#SVGID_1_);}
	.st1{fill:url(#SVGID_2_);}
	.st2{fill:url(#SVGID_3_);}
	.st3{fill:url(#SVGID_4_);}
	.st4{fill:url(#SVGID_5_);}
	.st5{fill:#FFFFFF;}
</style>
<g>
	<g>
		<g>
			<g>
				
					<linearGradient id="SVGID_1_" gradientUnits="userSpaceOnUse" x1="165.9583" y1="-18.9157" x2="165.9583" y2="92.2719" gradientTransform="matrix(1 0 0 1 -0.1455 0.167)">
					<stop  offset="0" style="stop-color:#FFF3A6"/>
					<stop  offset="0.3793" style="stop-color:#DEC53E"/>
					<stop  offset="0.4357" style="stop-color:#D8BE3A"/>
					<stop  offset="0.5104" style="stop-color:#C9AD2E"/>
					<stop  offset="0.5951" style="stop-color:#B1911F"/>
					<stop  offset="0.6155" style="stop-color:#AA8A1B"/>
					<stop  offset="0.732" style="stop-color:#997B1C"/>
					<stop  offset="0.9703" style="stop-color:#70581A"/>
					<stop  offset="1" style="stop-color:#6B541A"/>
				</linearGradient>
				<path class="st0" d="M115.3,5.9H131L144.8,51l14.9-45.3h12.6L187.2,51L201,5.9h15.3l-22.7,67h-12.7l-15-43.5l-15,43.5h-12.7
					L115.3,5.9z"/>
				
					<linearGradient id="SVGID_2_" gradientUnits="userSpaceOnUse" x1="248.3404" y1="-18.9157" x2="248.3404" y2="92.2721" gradientTransform="matrix(1 0 0 1 -0.1455 0.167)">
					<stop  offset="0" style="stop-color:#FFF3A6"/>
					<stop  offset="0.3793" style="stop-color:#DEC53E"/>
					<stop  offset="0.4357" style="stop-color:#D8BE3A"/>
					<stop  offset="0.5104" style="stop-color:#C9AD2E"/>
					<stop  offset="0.5951" style="stop-color:#B1911F"/>
					<stop  offset="0.6155" style="stop-color:#AA8A1B"/>
					<stop  offset="0.732" style="stop-color:#997B1C"/>
					<stop  offset="0.9703" style="stop-color:#70581A"/>
					<stop  offset="1" style="stop-color:#6B541A"/>
				</linearGradient>
				<path class="st1" d="M219.9,5.9l30.9,0c7.6,0,13.6,2.1,17.4,5.9c3.1,3,4.6,6.8,4.6,11.3v0.2c0,7.5-4,11.7-8.8,14.4
					c7.7,2.9,12.5,7.4,12.5,16.3v0.2c0,12.2-9.9,18.3-24.9,18.3h-31.7V5.9z M247.7,32.8c6.5,0,10.6-2.1,10.6-7v-0.2
					c0-4.4-3.4-6.8-9.6-6.8h-14.4v14.1H247.7z M251.6,59.6c6.5,0,10.4-2.3,10.4-7.2v-0.2c0-4.5-3.3-7.2-10.8-7.2h-16.9v14.6H251.6z"
					/>
				
					<linearGradient id="SVGID_3_" gradientUnits="userSpaceOnUse" x1="304.5562" y1="-18.9157" x2="304.5562" y2="92.272" gradientTransform="matrix(1 0 0 1 -0.1455 0.167)">
					<stop  offset="0" style="stop-color:#FFF3A6"/>
					<stop  offset="0.3793" style="stop-color:#DEC53E"/>
					<stop  offset="0.4357" style="stop-color:#D8BE3A"/>
					<stop  offset="0.5104" style="stop-color:#C9AD2E"/>
					<stop  offset="0.5951" style="stop-color:#B1911F"/>
					<stop  offset="0.6155" style="stop-color:#AA8A1B"/>
					<stop  offset="0.732" style="stop-color:#997B1C"/>
					<stop  offset="0.9703" style="stop-color:#70581A"/>
					<stop  offset="1" style="stop-color:#6B541A"/>
				</linearGradient>
				<path class="st2" d="M278.1,62.8l8.7-10.4c6,4.9,12.3,8.1,19.9,8.1c6,0,9.6-2.4,9.6-6.3V54c0-3.7-2.3-5.6-13.4-8.5
					c-13.4-3.4-22.1-7.1-22.1-20.3V25C280.7,12.9,290.4,5,304,5c9.7,0,18,3,24.7,8.5l-7.6,11c-5.9-4.1-11.7-6.6-17.3-6.6
					c-5.6,0-8.6,2.6-8.6,5.8v0.2c0,4.4,2.9,5.8,14.4,8.7c13.5,3.5,21.1,8.4,21.1,20v0.2c0,13.2-10.1,20.6-24.4,20.6
					C296.2,73.4,286,69.9,278.1,62.8z"/>
				
					<linearGradient id="SVGID_4_" gradientUnits="userSpaceOnUse" x1="365.0862" y1="-18.9156" x2="365.0862" y2="92.2723" gradientTransform="matrix(1 0 0 1 -0.1455 0.167)">
					<stop  offset="0" style="stop-color:#FFF3A6"/>
					<stop  offset="0.3793" style="stop-color:#DEC53E"/>
					<stop  offset="0.4357" style="stop-color:#D8BE3A"/>
					<stop  offset="0.5104" style="stop-color:#C9AD2E"/>
					<stop  offset="0.5951" style="stop-color:#B1911F"/>
					<stop  offset="0.6155" style="stop-color:#AA8A1B"/>
					<stop  offset="0.732" style="stop-color:#997B1C"/>
					<stop  offset="0.9703" style="stop-color:#70581A"/>
					<stop  offset="1" style="stop-color:#6B541A"/>
				</linearGradient>
				<path class="st3" d="M334.2,39.4v-0.2c0-18.9,14.3-34.4,34.7-34.4C381.5,4.8,389,9,395.2,15l-9.3,10.7c-5.1-4.7-10.3-7.5-17-7.5
					c-11.2,0-19.3,9.3-19.3,20.7v0.2c0,11.4,7.9,20.9,19.3,20.9c7.6,0,12.3-3,17.5-7.8l9.3,9.4c-6.8,7.3-14.5,11.9-27.3,11.9
					C348.8,73.6,334.2,58.5,334.2,39.4z"/>
			</g>
			
				<linearGradient id="SVGID_5_" gradientUnits="userSpaceOnUse" x1="256.6093" y1="101.693" x2="256.6093" y2="490.8989" gradientTransform="matrix(0.9999 -1.090000e-02 1.090000e-02 0.9999 -2.4219 2.2028)">
				<stop  offset="1.019160e-02" style="stop-color:#DC0D15"/>
				<stop  offset="1" style="stop-color:#582771"/>
			</linearGradient>
			<path class="st4" d="M7.5,121.6c0,0,1.9-0.5,5.4-1.4c3.6-0.9,8.7-2.3,15.4-4c6.6-1.6,14.8-3.2,24.1-5.2c9.3-2,19.9-3.8,31.5-5.8
				c11.6-1.7,24.2-3.7,37.5-5.2c6.7-0.8,13.6-1.5,20.6-2.3c7-0.8,14.2-1.2,21.5-1.8c14.6-1.3,29.8-2,45.2-2.8
				c7.7-0.2,15.5-0.4,23.3-0.6c3.9-0.1,7.8-0.2,11.7-0.3l11.8,0c7.8,0,15.6,0.1,23.4,0.1c7.8,0.1,15.6,0.4,23.3,0.6
				c15.5,0.3,30.6,1.5,45.2,2.4c14.7,0.9,28.8,2.6,42.1,3.9c13.3,1.8,26,3.2,37.6,5.2c11.6,2,22.2,3.6,31.5,5.8
				c9.3,2.1,17.5,3.6,24.1,5.4c6.6,1.7,11.8,3.2,15.3,4.1c3.5,1,5.4,1.5,5.4,1.5s-1.9-0.3-5.5-0.9c-3.6-0.6-8.9-1.4-15.6-2.6
				c-6.7-1.3-15-2.1-24.3-3.5c-4.7-0.7-9.7-1.3-15-1.8c-5.3-0.6-10.8-1.2-16.7-1.8c-5.8-0.7-11.8-1.2-18.1-1.7
				c-6.3-0.6-12.7-1.1-19.4-1.7c-6.7-0.4-13.5-0.8-20.5-1.2c-7-0.4-14.2-1-21.4-1.2c-14.6-0.6-29.6-1.2-44.9-1.5
				c-7.6-0.1-15.3-0.4-23.1-0.4c-7.8,0-15.6,0-23.4,0l-11.6,0c-3.9,0.1-7.8,0.1-11.6,0.2c-7.7,0.2-15.5,0.3-23.1,0.4
				c-15.3,0.7-30.3,0.8-44.9,1.8c-7.3,0.4-14.4,0.8-21.4,1.2c-7,0.5-13.9,1-20.5,1.4c-6.7,0.4-13.1,1.1-19.4,1.7
				c-6.3,0.6-12.3,1.1-18.1,1.6c-5.8,0.6-11.4,1.3-16.6,1.9c-5.3,0.6-10.3,1-15,1.7c-9.4,1.3-17.6,2.2-24.4,3.3
				c-6.7,1.1-12.1,1.9-15.7,2.4C9.5,121.3,7.5,121.6,7.5,121.6z"/>
		</g>
	</g>
	<g>
		<g>
			<path class="st5" d="M161,125.8h2.4l8.9,25.3l8.3-25.4h1.6l8.3,25.4l8.9-25.3h2.2l-10.3,28.6h-1.7l-8.3-24.7l-8.3,24.7h-1.7
				L161,125.8z"/>
			<path class="st5" d="M212.9,140.1L212.9,140.1c0-7.8,5.7-14.8,14.3-14.8c8.6,0,14.3,6.9,14.3,14.6v0.1c0,7.7-5.7,14.7-14.3,14.7
				C218.6,154.7,212.9,147.8,212.9,140.1z M239.3,140.1L239.3,140.1c0-7.1-5.1-12.9-12.1-12.9c-7,0-12.1,5.7-12.1,12.7v0.1
				c0,7,5.1,12.8,12.1,12.8C234.3,152.8,239.3,147.1,239.3,140.1z"/>
			<path class="st5" d="M256.4,125.8h11.9c3.5,0,6.3,1.1,8,2.8c1.3,1.3,2.1,3.2,2.1,5.3v0.1c0,4.8-3.5,7.5-8.3,8.1l9.4,12.1h-2.7
				l-9.1-11.8h-9.3v11.8h-2.1V125.8z M268.1,140.5c4.7,0,8.3-2.4,8.3-6.5v-0.1c0-3.8-3-6.2-8.2-6.2h-9.7v12.8H268.1z"/>
			<path class="st5" d="M293.5,125.8h2.1v26.5h16.7v2h-18.8V125.8z"/>
			<path class="st5" d="M326.3,125.8h9.5c8.9,0,15.1,6.1,15.1,14.1v0.1c0,8-6.2,14.2-15.1,14.2h-9.5V125.8z M328.5,127.7v24.5h7.4
				c7.9,0,12.9-5.4,12.9-12.2V140c0-6.8-5-12.3-12.9-12.3H328.5z"/>
		</g>
		<g>
			<path class="st5" d="M26.6,168.7h14.6c3.6,0,6.1,0.9,7.8,2.5c1.1,1.2,1.8,2.7,1.8,4.6v0.1c0,3.3-1.9,5.2-4.4,6.3
				c3.4,1.1,5.6,3.1,5.6,6.9v0.1c0,4.9-4,7.8-10.8,7.8H26.6V168.7z M43,177.5c0-1.6-1.3-2.4-3.6-2.4h-5.2v5h5
				C41.7,180.1,43,179.3,43,177.5L43,177.5z M40.3,185.6h-6v5.2h6.1c2.4,0,3.8-0.9,3.8-2.6v-0.1C44.2,186.6,43,185.6,40.3,185.6z"/>
			<path class="st5" d="M65.5,168.5h7.6l12.1,28.6h-8.4l-2-5.1h-11l-2,5.1h-8.2L65.5,168.5z M72.4,185.9l-3.2-8l-3.2,8H72.4z"/>
			<path class="st5" d="M85.4,192.9l4.4-5.2c2.8,2.2,5.9,3.4,9.2,3.4c2.2,0,3.3-0.7,3.3-1.9v-0.1c0-1.2-0.9-1.8-4.8-2.8
				c-6-1.4-10.7-3.1-10.7-8.9v-0.1c0-5.3,4.2-9.1,11-9.1c4.8,0,8.6,1.3,11.7,3.8l-3.9,5.6c-2.6-1.9-5.4-2.8-8-2.8
				c-1.9,0-2.8,0.8-2.8,1.8v0.1c0,1.3,1,1.9,5,2.8c6.5,1.4,10.6,3.5,10.6,8.8v0.1c0,5.8-4.6,9.3-11.5,9.3
				C93.7,197.7,89,196.1,85.4,192.9z"/>
			<path class="st5" d="M114.1,168.7h22.9v6.7h-15.1v4.3h13.6v6.2h-13.6v4.5h15.3v6.7h-23.1V168.7z"/>
			<path class="st5" d="M141.2,168.7h14.6c3.6,0,6.1,0.9,7.8,2.5c1.1,1.2,1.8,2.7,1.8,4.6v0.1c0,3.3-1.9,5.2-4.4,6.3
				c3.5,1.1,5.7,3.1,5.7,6.9v0.1c0,4.9-4,7.8-10.8,7.8h-14.7V168.7z M157.6,177.5c0-1.6-1.3-2.4-3.6-2.4h-5.2v5h5
				C156.2,180.1,157.6,179.3,157.6,177.5L157.6,177.5z M154.9,185.6h-6v5.2h6.1c2.4,0,3.8-0.9,3.8-2.6v-0.1
				C158.7,186.6,157.5,185.6,154.9,185.6z"/>
			<path class="st5" d="M180,168.5h7.6l12.1,28.6h-8.4l-2-5.1h-11l-2,5.1H168L180,168.5z M186.9,185.9l-3.2-8l-3.2,8H186.9z"/>
			<path class="st5" d="M202.5,168.7h7.9v21.5h13.8v6.9h-21.7V168.7z"/>
			<path class="st5" d="M227.5,168.7h7.9v21.5h13.8v6.9h-21.6V168.7z"/>
			<path class="st5" d="M261.7,192.9l4.4-5.2c2.8,2.2,5.9,3.4,9.2,3.4c2.2,0,3.3-0.7,3.3-1.9v-0.1c0-1.2-0.9-1.8-4.8-2.8
				c-6-1.4-10.7-3.1-10.7-8.9v-0.1c0-5.3,4.2-9.1,11-9.1c4.8,0,8.6,1.3,11.7,3.8l-3.9,5.6c-2.6-1.9-5.4-2.8-8-2.8
				c-1.9,0-2.9,0.8-2.9,1.8v0.1c0,1.3,1,1.9,5,2.8c6.5,1.4,10.6,3.5,10.6,8.8v0.1c0,5.8-4.6,9.3-11.5,9.3
				C270,197.7,265.2,196.1,261.7,192.9z"/>
			<path class="st5" d="M289.4,183L289.4,183c0-8.2,6.6-14.9,15.4-14.9s15.3,6.5,15.3,14.7v0.1c0,8.2-6.6,14.8-15.4,14.8
				C295.9,197.7,289.4,191.2,289.4,183z M311.9,183L311.9,183c0-4.2-2.9-7.8-7.3-7.8c-4.3,0-7.2,3.5-7.2,7.6v0.1
				c0,4.1,3,7.7,7.3,7.7C309,190.6,311.9,187.1,311.9,183z"/>
			<path class="st5" d="M324.1,168.7h22.7v6.9H332v4.8h13.4v6.5H332v10.2h-7.9V168.7z"/>
			<path class="st5" d="M357.4,175.6h-8.5v-6.9h24.9v6.9h-8.5v21.5h-7.9V175.6z"/>
			<path class="st5" d="M377.2,168.7h14.6c3.6,0,6.1,0.9,7.8,2.5c1.1,1.2,1.8,2.7,1.8,4.6v0.1c0,3.3-1.9,5.2-4.4,6.3
				c3.5,1.1,5.6,3.1,5.6,6.9v0.1c0,4.9-4,7.8-10.8,7.8h-14.7V168.7z M393.6,177.5c0-1.6-1.3-2.4-3.6-2.4h-5.2v5h5
				C392.2,180.1,393.6,179.3,393.6,177.5L393.6,177.5z M390.9,185.6h-6v5.2h6.1c2.4,0,3.8-0.9,3.8-2.6v-0.1
				C394.8,186.6,393.5,185.6,390.9,185.6z"/>
			<path class="st5" d="M416.1,168.5h7.6l12.1,28.6h-8.4l-2-5.1h-11l-2,5.1H404L416.1,168.5z M423,185.9l-3.2-8l-3.2,8H423z"/>
			<path class="st5" d="M438.5,168.7h7.9v21.5h13.8v6.9h-21.7V168.7z"/>
			<path class="st5" d="M463.6,168.7h7.9v21.5h13.8v6.9h-21.6V168.7z"/>
		</g>
		<g>
			<path class="st5" d="M28.1,226L28.1,226c0-8.1,6-14.8,14.2-14.8c5.1,0,8.1,1.9,11,4.5l-1.5,1.5c-2.5-2.4-5.3-4.2-9.6-4.2
				c-6.8,0-12,5.6-12,12.7v0.1c0,7.2,5.2,12.8,12,12.8c4.1,0,6.9-1.6,9.8-4.4l1.4,1.4c-3,3-6.3,5-11.3,5
				C34.1,240.6,28.1,234.2,28.1,226z"/>
			<path class="st5" d="M65,226L65,226c0-7.8,5.7-14.8,14.3-14.8s14.3,6.9,14.3,14.6v0.1c0,7.8-5.7,14.7-14.3,14.7
				C70.6,240.6,65,233.8,65,226z M91.4,226L91.4,226c0-7.1-5.1-12.9-12.1-12.9c-7,0-12.1,5.7-12.1,12.7v0.1c0,7,5.1,12.8,12.1,12.8
				S91.4,233,91.4,226z"/>
			<path class="st5" d="M108.5,211.7h2l19.6,24.7v-24.7h2v28.4h-1.6l-20-25.3v25.3h-2V211.7z"/>
			<path class="st5" d="M148.3,211.7h20v1.9h-17.9v11.7h16.1v1.9h-16.1v12.9h-2.1V211.7z"/>
			<path class="st5" d="M182.6,211.7h20.2v1.9h-18.1v11.2H201v1.9h-16.3v11.4h18.3v1.9h-20.4V211.7z"/>
			<path class="st5" d="M217.5,211.7h9.5c8.9,0,15.1,6.1,15.1,14.1v0.1c0,8-6.2,14.2-15.1,14.2h-9.5V211.7z M219.6,213.7v24.5h7.4
				c7.9,0,12.9-5.4,12.9-12.2v-0.1c0-6.7-5-12.3-12.9-12.3H219.6z"/>
			<path class="st5" d="M257,211.7h20.2v1.9h-18.1v11.2h16.3v1.9h-16.3v11.4h18.3v1.9H257V211.7z"/>
			<path class="st5" d="M291.9,211.7h11.9c3.5,0,6.3,1.1,8,2.8c1.3,1.3,2.1,3.3,2.1,5.3v0.1c0,4.8-3.5,7.5-8.3,8.1l9.4,12.1h-2.7
				l-9.1-11.8H294v11.8h-2.1V211.7z M303.5,226.5c4.7,0,8.3-2.4,8.3-6.5v-0.1c0-3.8-3-6.2-8.2-6.2H294v12.8H303.5z"/>
			<path class="st5" d="M339.7,211.5h2l13.2,28.6h-2.3l-3.6-8h-16.8l-3.6,8h-2.2L339.7,211.5z M348.2,230.3l-7.5-16.4l-7.5,16.4
				H348.2z"/>
			<path class="st5" d="M372.9,213.7H363v-1.9H385v1.9h-9.9v26.5h-2.1V213.7z"/>
			<path class="st5" d="M399.3,211.7h2.1v28.4h-2.1V211.7z"/>
			<path class="st5" d="M416.6,226L416.6,226c0-7.8,5.7-14.8,14.3-14.8c8.6,0,14.3,6.9,14.3,14.6v0.1c0,7.8-5.7,14.7-14.3,14.7
				C422.3,240.6,416.6,233.8,416.6,226z M443,226L443,226c0-7.1-5.1-12.9-12.1-12.9c-7,0-12.1,5.7-12.1,12.7v0.1
				c0,7,5.1,12.8,12.1,12.8C438,238.7,443,233,443,226z"/>
			<path class="st5" d="M460.1,211.7h2l19.6,24.7v-24.7h2v28.4h-1.6l-20-25.3v25.3h-2V211.7z"/>
		</g>
	</g>
</g>
</svg>
